<?xml version="1.0" encoding="utf-8"?>
<!-- Generator: Adobe Illustrator 26.0.1, SVG Export Plug-In . SVG Version: 6.00 Build 0)  -->
<svg version="1.1" id="Layer_1" xmlns="http://www.w3.org/2000/svg" xmlns:xlink="http://www.w3.org/1999/xlink" x="0px" y="0px"
	 viewBox="0 0 1600 900" style="enable-background:new 0 0 1600 900;" xml:space="preserve">
<style type="text/css">
	.st0{fill:none;stroke:#32D80F;stroke-width:10;}
	.st1{fill:#32D80F;stroke:#32D80F;stroke-width:10;}
	.st2{fill:none;}
	.st3{font-family:'MyriadPro-Regular';}
	.st4{font-size:18px;}
	.st5{fill:#FFFFFF;}
	.st6{font-family:'BritannicBold';}
	.st7{font-size:48px;}
	.st8{fill:url(#SVGID_1_);}
	.st9{fill:url(#SVGID_00000160901546662455546070000004635442285695996810_);}
	.st10{fill:url(#SVGID_00000054241074489629184990000000715226086303446684_);}
	.st11{fill:url(#SVGID_00000016754842339472770720000016922283595192484524_);}
	.st12{fill:url(#SVGID_00000104698278784020340370000015811486137856871827_);}
	.st13{fill:url(#SVGID_00000054953588164250225890000017437862091244762028_);}
	.st14{fill:url(#SVGID_00000181061460783187631190000014812443560327834303_);}
	.st15{fill:url(#SVGID_00000145763045806893594210000002261227954118405780_);}
	.st16{fill:url(#SVGID_00000146461585269467475790000010908447435770178719_);}
</style>
<ellipse class="st0" cx="726.34" cy="412.01" rx="515.5" ry="199.64"/>
<ellipse class="st1" cx="368.86" cy="271.38" rx="42.39" ry="32.28"/>
<ellipse class="st1" cx="850.43" cy="611.65" rx="42.39" ry="32.28"/>
<ellipse class="st1" cx="1130.18" cy="281.83" rx="42.39" ry="32.28"/>
<ellipse class="st1" cx="613.9" cy="609.22" rx="42.39" ry="32.28"/>
<ellipse class="st1" cx="387.51" cy="556.87" rx="42.39" ry="32.28"/>
<ellipse class="st1" cx="224.39" cy="417.72" rx="42.39" ry="32.28"/>
<ellipse class="st1" cx="1076.61" cy="556.87" rx="42.39" ry="32.28"/>
<ellipse class="st1" cx="1233.82" cy="417.72" rx="42.39" ry="32.28"/>
<ellipse class="st1" cx="916" cy="228" rx="42.39" ry="32.28"/>
<ellipse class="st1" cx="631.91" cy="217.28" rx="42.39" ry="32.28"/>
<rect x="230.12" y="185" class="st2" width="230" height="40"/>
<text transform="matrix(1 0 0 1 232.2571 197.7798)"><tspan x="0" y="0" class="st3 st4">Receipt of demand letter from </tspan><tspan x="90.93" y="21.6" class="st3 st4">Client</tspan></text>
<rect x="527.59" y="133.2" class="st2" width="230" height="40"/>
<text transform="matrix(1 0 0 1 541.9365 145.9829)"><tspan x="0" y="0" class="st3 st4">Search in our data bank for </tspan><tspan x="24.85" y="21.6" class="st3 st4">qualified candidates</tspan></text>
<rect x="823.59" y="144.8" class="st2" width="230" height="40"/>
<text transform="matrix(1 0 0 1 828.5586 157.5815)"><tspan x="0" y="0" class="st3 st4">Interview by experts to short</tspan><tspan x="214.54" y="0" class="st3 st4">-</tspan><tspan x="99.26" y="21.6" class="st3 st4">list</tspan></text>
<rect x="1097" y="219.11" class="st2" width="230" height="40"/>
<text transform="matrix(1 0 0 1 1123.7207 231.8849)" class="st3 st4">Practical test if required</text>
<rect x="1250.82" y="335.61" class="st2" width="230" height="76.4"/>
<text transform="matrix(1 0 0 1 1257.0381 348.391)"><tspan x="0" y="0" class="st3 st4">After selection, employer will </tspan><tspan x="-3.42" y="21.6" class="st3 st4">apply visa through Metrash or </tspan><tspan x="26.59" y="43.2" class="st3 st4">Hukomi (if applicable)</tspan></text>
<rect x="1013.03" y="611.65" class="st2" width="230" height="40"/>
<text transform="matrix(1 0 0 1 1014.7207 624.4344)" class="st3 st4">Employer will get visa number</text>
<rect x="757.59" y="666.2" class="st2" width="198" height="64.8"/>
<text transform="matrix(1 0 0 1 774.8452 678.9829)"><tspan x="0" y="0" class="st3 st4">QVC Process: Medical, </tspan><tspan x="-9.95" y="21.6" class="st3 st4">finger print and contract </tspan><tspan x="53.92" y="43.2" class="st3 st4">signing</tspan></text>
<rect x="502.9" y="650.82" class="st2" width="230" height="40"/>
<text transform="matrix(1 0 0 1 617.9028 663.596)"><tspan x="0" y="0" class="st3 st4">                                                      </tspan><tspan x="-75.5" y="21.6" class="st3 st4">Visa is ready to print</tspan></text>
<rect x="284.59" y="621.93" class="st2" width="230" height="40"/>
<text transform="matrix(1 0 0 1 289.4956 634.7087)"><tspan x="0" y="0" class="st3 st4">Once visa issued, we will con</tspan><tspan x="214.67" y="0" class="st3 st4">-</tspan><tspan x="-1.7" y="21.6" class="st3 st4">tinue with exit formalities and </tspan></text>
<rect x="-52.41" y="369" class="st2" width="234.41" height="64.8"/>
<text transform="matrix(1 0 0 1 6.9707 381.7822)" class="st3 st4">Arrival of the candidate</text>
<rect x="298.71" y="253.77" class="st2" width="85" height="110"/>
<text transform="matrix(1 0 0 1 354.4629 286.2741)" class="st5 st6 st7">1</text>
<rect x="603.27" y="198.77" class="st2" width="39.32" height="45.23"/>
<text transform="matrix(1 0 0 1 613.2939 231.2741)" class="st5 st6 st7">2</text>
<rect x="843.15" y="209.75" class="st2" width="85" height="110"/>
<text transform="matrix(1 0 0 1 898.7822 242.2584)" class="st5 st6 st7">3</text>
<rect x="1059.95" y="264.75" class="st2" width="85" height="110"/>
<text transform="matrix(1 0 0 1 1115.6494 297.2584)" class="st5 st6 st7">4</text>
<rect x="1165.82" y="401.4" class="st2" width="85" height="110"/>
<text transform="matrix(1 0 0 1 1221.4521 433.9096)" class="st5 st6 st7">5</text>
<rect x="1011.09" y="540.75" class="st2" width="85" height="110"/>
<text transform="matrix(1 0 0 1 1066.7002 573.2584)" class="st5 st6 st7">6</text>
<rect x="781.09" y="595.75" class="st2" width="85" height="110"/>
<text transform="matrix(1 0 0 1 836.7939 628.2584)" class="st5 st6 st7">7</text>
<rect x="542.88" y="595.75" class="st2" width="85" height="110"/>
<text transform="matrix(1 0 0 1 598.5605 628.2584)" class="st5 st6 st7">8</text>
<rect x="316.57" y="540.75" class="st2" width="85" height="110"/>
<text transform="matrix(1 0 0 1 372.2265 573.2584)" class="st5 st6 st7">9</text>
<rect x="163.34" y="400" class="st2" width="85" height="110"/>
<text transform="matrix(1 0 0 1 189.7963 432.5088)" class="st5 st6 st7">10</text>
<linearGradient id="SVGID_1_" gradientUnits="userSpaceOnUse" x1="474.0247" y1="235.4489" x2="510.0381" y2="235.4489">
	<stop  offset="0" style="stop-color:#FFFFFF"/>
	<stop  offset="1" style="stop-color:#32D80F"/>
</linearGradient>
<path class="st8" d="M483.83,229.69c-2.53-1.46-5.07-2.92-7.6-4.37c-1.45-1.8-4.57-3.79,0.89-4.45c4.84-0.58,9.69-1.3,14.44-2.38
	c4.9-1.11,6.82,3.1,10.09,4.87c2.61,1.4,5.06,3.09,7.58,4.65c2.17,3.34-0.83,6.58-0.23,9.9c-2.75,5.57-6.48,10.16-12.68,12.29
	c-4.8,0.96-9.61,1.83-14.47,2.39c-7.26-0.5-4.11-4.08-2.2-7.3c0.86-1.1,1.91-2.02,3.09-2.77c3.69-1.89,6.32-4.26,4.15-8.8
	C485.59,232.59,485.1,230.85,483.83,229.69z"/>
<linearGradient id="SVGID_00000138547688877629797560000005629020019802274442_" gradientUnits="userSpaceOnUse" x1="744.3719" y1="211.6905" x2="780.3853" y2="211.6905" gradientTransform="matrix(0.9761 0.2175 -0.2175 0.9761 63.9049 -160.8894)">
	<stop  offset="0" style="stop-color:#FFFFFF"/>
	<stop  offset="1" style="stop-color:#32D80F"/>
</linearGradient>
<path style="fill:url(#SVGID_00000138547688877629797560000005629020019802274442_);" d="M755.24,204.14
	c-2.15-1.97-4.31-3.95-6.46-5.92c-1.02-2.08-3.64-4.69,1.84-4.14c4.85,0.49,9.74,0.84,14.61,0.82c5.02-0.02,5.98,4.51,8.79,6.94
	c2.24,1.94,4.27,4.12,6.39,6.19c1.39,3.73-2.24,6.24-2.38,9.62c-3.9,4.84-8.54,8.51-15.05,9.24c-4.89-0.1-9.78-0.31-14.64-0.82
	c-6.97-2.06-3.12-4.87-0.56-7.61c1.08-0.89,2.3-1.55,3.62-2.03c4.01-1.04,7.1-2.78,5.96-7.68
	C756.33,207.35,756.23,205.55,755.24,204.14z"/>
<linearGradient id="SVGID_00000159456362825382878500000006548501120117099913_" gradientUnits="userSpaceOnUse" x1="995.2204" y1="244.8585" x2="1031.2339" y2="244.8585" gradientTransform="matrix(0.8794 0.4761 -0.4761 0.8794 237.844 -452.8887)">
	<stop  offset="0" style="stop-color:#FFFFFF"/>
	<stop  offset="1" style="stop-color:#32D80F"/>
</linearGradient>
<path style="fill:url(#SVGID_00000159456362825382878500000006548501120117099913_);" d="M1007.83,235.86
	c-1.53-2.49-3.07-4.98-4.6-7.46c-0.41-2.28-2.21-5.51,2.9-3.48c4.53,1.8,9.14,3.47,13.83,4.78c4.83,1.35,4.52,5.98,6.56,9.08
	c1.63,2.48,2.98,5.13,4.45,7.7c0.32,3.97-3.86,5.39-4.92,8.6c-5.07,3.59-10.54,5.85-17,4.77c-4.68-1.44-9.32-2.97-13.86-4.79
	c-6.14-3.89-1.67-5.54,1.54-7.47c1.28-0.56,2.64-0.87,4.04-0.96c4.15,0.1,7.59-0.74,7.84-5.76
	C1008,239.24,1008.4,237.48,1007.83,235.86z"/>
<linearGradient id="SVGID_00000010995057995113545140000006040922951815621810_" gradientUnits="userSpaceOnUse" x1="1126.6433" y1="186.9637" x2="1162.6567" y2="186.9637" gradientTransform="matrix(0.5526 0.8335 -0.8335 0.5526 723.8751 -723.8047)">
	<stop  offset="0" style="stop-color:#FFFFFF"/>
	<stop  offset="1" style="stop-color:#32D80F"/>
</linearGradient>
<path style="fill:url(#SVGID_00000010995057995113545140000006040922951815621810_);" d="M1200.8,323.53
	c-0.18-2.92-0.37-5.83-0.55-8.75c0.7-2.2,0.63-5.9,4.2-1.71c3.16,3.72,6.44,7.36,9.96,10.72c3.63,3.47,1.18,7.4,1.52,11.1
	c0.27,2.95,0.22,5.92,0.31,8.89c-1.58,3.65-5.94,2.95-8.38,5.28c-6.17,0.78-12.05,0.21-17.25-3.78c-3.45-3.47-6.83-7-9.99-10.74
	c-3.59-6.32,1.13-5.68,4.87-5.87c1.39,0.11,2.73,0.47,4.02,1.05c3.61,2.03,7.04,2.92,9.62-1.4
	C1199.36,326.59,1200.53,325.23,1200.8,323.53z"/>
<linearGradient id="SVGID_00000014596547348059248480000018217549252595119766_" gradientUnits="userSpaceOnUse" x1="289.589" y1="192.2971" x2="325.6024" y2="192.2971" gradientTransform="matrix(-0.8348 0.5506 -0.5506 -0.8348 1539.3225 497.443)">
	<stop  offset="0" style="stop-color:#FFFFFF"/>
	<stop  offset="1" style="stop-color:#32D80F"/>
</linearGradient>
<path style="fill:url(#SVGID_00000014596547348059248480000018217549252595119766_);" d="M1186.69,506.57
	c2.92-0.18,5.83-0.35,8.75-0.53c2.2,0.71,5.9,0.65,1.7,4.2c-3.72,3.15-7.37,6.42-10.74,9.94c-3.48,3.62-7.4,1.16-11.1,1.49
	c-2.95,0.26-5.92,0.21-8.89,0.29c-3.65-1.59-2.93-5.95-5.26-8.39c-0.77-6.17-0.18-12.05,3.82-17.24c3.47-3.44,7.01-6.82,10.76-9.96
	c6.33-3.58,5.67,1.14,5.86,4.88c-0.11,1.39-0.48,2.73-1.06,4.01c-2.04,3.61-2.93,7.03,1.38,9.63
	C1183.62,505.12,1184.99,506.3,1186.69,506.57z"/>
<linearGradient id="SVGID_00000111166541128923295740000000924309041676807562_" gradientUnits="userSpaceOnUse" x1="494.9204" y1="662.6587" x2="530.9338" y2="662.6587" gradientTransform="matrix(-1.071 0.3441 0.3441 0.9428 1290.322 -214.399)">
	<stop  offset="0" style="stop-color:#FFFFFF"/>
	<stop  offset="1" style="stop-color:#32D80F"/>
</linearGradient>
<path style="fill:url(#SVGID_00000111166541128923295740000000924309041676807562_);" d="M975.8,578.63
	c2.21-2.25,4.42-4.49,6.63-6.74c0.93-2.2,3.59-5.15-2.49-3.88c-5.38,1.12-10.83,2.11-16.29,2.73c-5.63,0.64-6.23,5.27-9.13,8.06
	c-2.31,2.22-4.36,4.65-6.52,6.99c-1.18,3.89,3.15,5.92,3.65,9.26c4.87,4.31,10.44,7.35,17.81,7.22c5.47-0.74,10.92-1.58,16.32-2.73
	c7.6-2.97,2.99-5.26-0.15-7.64c-1.3-0.74-2.74-1.25-4.27-1.55c-4.6-0.51-8.23-1.84-7.47-6.87
	C974.91,581.97,974.84,580.16,975.8,578.63z"/>
<linearGradient id="SVGID_00000004504338098239838520000017333884199897113729_" gradientUnits="userSpaceOnUse" x1="703.2041" y1="612.7155" x2="739.2175" y2="612.7155" gradientTransform="matrix(-1.122 0.0812 0.1115 0.9974 1469.4761 -58.0022)">
	<stop  offset="0" style="stop-color:#FFFFFF"/>
	<stop  offset="1" style="stop-color:#32D80F"/>
</linearGradient>
<path style="fill:url(#SVGID_00000004504338098239838520000017333884199897113729_);" d="M737.13,605.29
	c2.68-1.66,5.36-3.32,8.04-4.98c1.42-1.92,4.71-4.15-1.5-4.36c-5.5-0.18-11.02-0.51-16.47-1.2c-5.62-0.71-7.3,3.65-10.78,5.67
	c-2.77,1.61-5.33,3.49-7.99,5.25c-2.06,3.51,1.66,6.5,1.36,9.86c3.71,5.33,8.41,9.61,15.59,11.23c5.49,0.57,10.98,1.04,16.5,1.21
	c8.09-1.09,4.15-4.4,1.66-7.46c-1.09-1.03-2.36-1.86-3.78-2.51c-4.35-1.58-7.57-3.73-5.63-8.44
	C735.48,608.32,735.83,606.55,737.13,605.29z"/>
<linearGradient id="SVGID_00000056398155301559897600000017877941722665741751_" gradientUnits="userSpaceOnUse" x1="856.22" y1="588.8271" x2="892.2334" y2="588.8271" gradientTransform="matrix(-1.1247 0.0236 0.0603 1.0018 1451.2014 -21.3219)">
	<stop  offset="0" style="stop-color:#FFFFFF"/>
	<stop  offset="1" style="stop-color:#32D80F"/>
</linearGradient>
<path style="fill:url(#SVGID_00000056398155301559897600000017877941722665741751_);" d="M512.32,583.29
	c2.76-1.52,5.52-3.04,8.28-4.56c1.52-1.84,4.91-3.91-1.27-4.43c-5.48-0.47-10.98-1.08-16.39-2.04c-5.57-1-7.48,3.27-11.06,5.11
	c-2.85,1.47-5.5,3.22-8.24,4.84c-2.24,3.4,1.33,6.57,0.86,9.92c3.43,5.52,7.91,10.03,15,12.01c5.45,0.85,10.92,1.6,16.42,2.05
	c8.13-0.67,4.37-4.18,2.04-7.37c-1.04-1.08-2.27-1.98-3.65-2.7c-4.27-1.8-7.37-4.12-5.19-8.72
	C510.52,586.24,510.96,584.49,512.32,583.29z"/>
<linearGradient id="SVGID_00000119105481930429032290000015534942314135509915_" gradientUnits="userSpaceOnUse" x1="1034.7205" y1="599.656" x2="1070.7339" y2="599.656" gradientTransform="matrix(-0.9469 -0.6074 -0.5084 0.8653 1576.6255 629.6175)">
	<stop  offset="0" style="stop-color:#FFFFFF"/>
	<stop  offset="1" style="stop-color:#32D80F"/>
</linearGradient>
<path style="fill:url(#SVGID_00000119105481930429032290000015534942314135509915_);" d="M285.58,509.14
	c3.14,0.28,6.28,0.55,9.42,0.83c2.29-0.68,6.26-0.5,1.41-4.39c-4.29-3.44-8.52-7.01-12.46-10.83c-4.07-3.94-8.03-1.45-12.03-1.92
	c-3.18-0.37-6.36-0.4-9.54-0.58c-3.75,1.57-2.56,6.2-4.82,8.71c-0.23,6.49,0.97,12.73,5.76,18.33c4.05,3.75,8.17,7.42,12.49,10.86
	c7.12,3.98,5.96-1.03,5.8-4.98c-0.26-1.48-0.78-2.9-1.52-4.27c-2.54-3.88-3.82-7.52,0.55-10.13
	C282.44,510.58,283.79,509.37,285.58,509.14z"/>
</svg>
